<svg viewBox="0 0 128 128" fill="none" xmlns="http://www.w3.org/2000/svg">
<path fill-rule="evenodd" clip-rule="evenodd" d="M50.8911 17.1134C46.5159 16.4985 42.4705 19.5469 41.8556 23.9222L41.1833 28.706L7.88761 33.3854C3.51233 34.0004 0.463946 38.0457 1.07885 42.421L7.75916 89.9538C8.37407 94.3291 12.4194 97.3775 16.7947 96.7626L32.0387 94.6202C32.1611 98.4368 35.0117 101.727 38.9222 102.276L108.241 112.019C112.616 112.633 116.662 109.585 117.277 105.21L127.019 35.891C127.634 31.5158 124.585 27.4704 120.21 26.8555L50.8911 17.1134ZM32.0387 94.6202L64.3276 90.0823C68.7028 89.4674 71.7512 85.422 71.1363 81.0468L64.456 33.5139C63.8411 29.1386 59.7958 26.0902 55.4205 26.7051L41.1833 28.706L32.1135 93.2409C32.0482 93.7056 32.0242 94.1666 32.0387 94.6202Z" fill="white"/>
    <style>
        path { fill: #000; }
        @media (prefers-color-scheme: dark) {
            path { fill: #FFF; }
        }
    </style>
</svg>
